<svg id="Camada_2" data-name="Camada 2" xmlns="http://www.w3.org/2000/svg" viewBox="0 0 770.21 615.13"><defs><style>.cls-1{fill:#630;}.cls-2,.cls-3{fill:none;stroke:#c0c;}.cls-2,.cls-3,.cls-8{stroke-miterlimit:10;}.cls-2{stroke-width:5.99px;}.cls-3{stroke-width:4.77px;}.cls-4{font-size:37.65px;fill:#c0c;}.cls-4,.cls-5,.cls-9{font-family:MyriadPro-Bold, Myriad Pro;font-weight:700;}.cls-5{font-size:72.31px;}.cls-6{letter-spacing:0em;}.cls-7{letter-spacing:-0.01em;}.cls-8{stroke:#630;}.cls-9{font-size:107.37px;}.cls-10{letter-spacing:0em;}</style></defs><title>ligacanelSem título-1</title><rect class="cls-1" y="288.76" width="515.98" height="248.12"/><rect x="154.37" y="288.76" width="195.96" height="84.59"/><rect x="219.93" y="373.35" width="63.44" height="163.53"/><line class="cls-2" x1="94.46" y1="288.76" x2="94.46" y2="373.35"/><line class="cls-3" x1="155.43" y1="227.44" x2="155.43" y2="281.01"/><line class="cls-3" x1="219.57" y1="561.56" x2="219.57" y2="615.13"/><line class="cls-3" x1="349.98" y1="227.44" x2="349.98" y2="281.01"/><line class="cls-3" x1="283.01" y1="561.56" x2="283.01" y2="615.13"/><line class="cls-2" x1="350.33" y1="254.58" x2="155.08" y2="254.58"/><line class="cls-2" x1="415.53" y1="597.15" x2="219.57" y2="597.15"/><line class="cls-2" x1="112.78" y1="372.29" x2="76.83" y2="371.94"/><text class="cls-4" transform="translate(59.27 344.91)">t</text><text class="cls-4" transform="translate(236.19 240.58)">D</text><text class="cls-4" transform="translate(317.26 588.09)">d</text><text class="cls-5" transform="translate(61.12 60.52)">Liga<tspan class="cls-6" x="137.24" y="0">ç</tspan><tspan x="170.13" y="0">ão </tspan><tspan class="cls-7" x="264.64" y="0">c</tspan><tspan x="296.45" y="0">om anéis</tspan></text><polygon class="cls-8" points="578.5 407.63 714.5 407.63 714.5 371.63 769.5 426.63 717.5 478.63 717.5 433.63 578.5 433.63 578.5 407.63"/><text class="cls-9" transform="translate(592.52 331)"><tspan class="cls-10">N</tspan><tspan x="73.76" y="0">d</tspan></text></svg>