<svg id="Camada_3" data-name="Camada 3" xmlns="http://www.w3.org/2000/svg" viewBox="0 0 784.21 582.02"><defs><style>.cls-1{fill:#630;}.cls-2{font-size:72.31px;}.cls-11,.cls-2,.cls-8{font-family:MyriadPro-Bold, Myriad Pro;font-weight:700;}.cls-3{letter-spacing:0em;}.cls-4{letter-spacing:-0.01em;}.cls-5{letter-spacing:-0.01em;}.cls-6{fill:#fff;}.cls-7,.cls-9{fill:none;stroke:#c0c;}.cls-10,.cls-7,.cls-9{stroke-miterlimit:10;}.cls-7{stroke-width:6.88px;}.cls-8{font-size:43.19px;fill:#c0c;}.cls-9{stroke-width:7.83px;}.cls-10{stroke:#630;}.cls-11{font-size:107.37px;}.cls-12{letter-spacing:0em;}</style></defs><title>ligacentalheSem título-1</title><rect class="cls-1" y="246.39" width="592" height="284.68"/><text class="cls-2" transform="translate(85.12 60.52)">Liga<tspan class="cls-3" x="137.24" y="0">ç</tspan><tspan x="170.13" y="0">ão </tspan><tspan class="cls-4" x="264.64" y="0">c</tspan><tspan x="296.45" y="0">om e</tspan><tspan class="cls-5" x="453.14" y="0">n</tspan><tspan x="495.08" y="0">talhe</tspan></text><rect class="cls-6" x="122.93" y="472.84" width="335.63" height="58.23"/><rect class="cls-6" x="122.93" y="246.39" width="335.63" height="44.48"/><line class="cls-7" x1="215.93" y1="246.39" x2="216.34" y2="291.28"/><line class="cls-7" x1="237.77" y1="291.28" x2="196.52" y2="290.87"/><line class="cls-7" x1="237.77" y1="246.8" x2="196.52" y2="246.39"/><text class="cls-8" transform="translate(207.1 220.23)">t1</text><line class="cls-9" x1="215.93" y1="472.84" x2="216.34" y2="531.07"/><line class="cls-9" x1="237.77" y1="531.07" x2="196.52" y2="530.54"/><line class="cls-9" x1="237.77" y1="473.36" x2="196.52" y2="472.84"/><text class="cls-8" transform="translate(241.88 571.22)">t2</text><polygon class="cls-10" points="592.5 367.63 728.5 367.63 728.5 331.63 783.5 386.63 731.5 438.63 731.5 393.63 592.5 393.63 592.5 367.63"/><text class="cls-11" transform="translate(606.52 304)"><tspan class="cls-12">N</tspan><tspan x="73.76" y="0">d</tspan></text></svg>