<svg id="Camada_1" data-name="Camada 1" xmlns="http://www.w3.org/2000/svg" viewBox="0 0 936 885.22"><defs><style>.cls-1{fill:#630;}.cls-1,.cls-29{stroke:#000;}.cls-1,.cls-2,.cls-28,.cls-29,.cls-4{stroke-miterlimit:10;}.cls-2{stroke:#630;}.cls-3{font-size:48px;}.cls-3,.cls-31,.cls-32,.cls-33,.cls-34,.cls-35,.cls-36,.cls-37,.cls-38,.cls-5{font-family:MyriadPro-Regular, Myriad Pro;}.cls-28,.cls-29,.cls-4{fill:none;}.cls-4{stroke:#fff;}.cls-31,.cls-32,.cls-33,.cls-34,.cls-35,.cls-36,.cls-37,.cls-38,.cls-5{font-size:30px;}.cls-6{letter-spacing:-0.03em;}.cls-7{letter-spacing:0em;}.cls-38,.cls-8{letter-spacing:-0.01em;}.cls-9{letter-spacing:-0.01em;}.cls-10{letter-spacing:-0.01em;}.cls-11{letter-spacing:-0.01em;}.cls-12{letter-spacing:-0.02em;}.cls-13,.cls-33{letter-spacing:0em;}.cls-14{letter-spacing:0em;}.cls-15{letter-spacing:-0.01em;}.cls-16{letter-spacing:-0.01em;}.cls-17{letter-spacing:-0.04em;}.cls-18{letter-spacing:-0.03em;}.cls-19{letter-spacing:0em;}.cls-20,.cls-36{letter-spacing:0em;}.cls-21,.cls-32{letter-spacing:0em;}.cls-22{letter-spacing:-0.01em;}.cls-23{letter-spacing:0em;}.cls-24{letter-spacing:0.01em;}.cls-25{letter-spacing:-0.05em;}.cls-26,.cls-34{letter-spacing:-0.01em;}.cls-27{letter-spacing:-0.01em;}.cls-28{stroke:#3ff;}.cls-29{stroke-width:5.67px;}.cls-30{font-size:35px;font-family:MyriadPro-Bold, Myriad Pro;font-weight:700;}.cls-31,.cls-32,.cls-33,.cls-34,.cls-35,.cls-36,.cls-37,.cls-38{font-weight:400;}.cls-31{letter-spacing:0em;}.cls-37{letter-spacing:-0.01em;}</style></defs><title>ProvaSolos2Sem título-1</title><rect class="cls-1" x="0.5" y="12.28" width="497" height="192"/><polygon class="cls-2" points="560.5 85.28 696.5 85.28 696.5 49.28 751.5 104.28 699.5 156.28 699.5 111.28 560.5 111.28 560.5 85.28"/><text class="cls-3" transform="translate(610 40.18)">Nd</text><circle cx="124.5" cy="53.28" r="19.5"/><circle cx="244.5" cy="53.28" r="19.5"/><circle cx="362.5" cy="53.28" r="19.5"/><circle cx="244.5" cy="155.28" r="19.5"/><circle cx="362.5" cy="155.28" r="19.5"/><circle cx="124.5" cy="155.28" r="19.5"/><line class="cls-4" x1="362.5" y1="12.28" x2="362.5" y2="34.28"/><line class="cls-4" x1="362.5" y1="73.78" x2="362.5" y2="136.28"/><line class="cls-4" x1="362.5" y1="175.28" x2="362.5" y2="204.28"/><rect class="cls-1" x="0.5" y="394.28" width="497" height="192"/><polygon class="cls-2" points="560.5 467.28 696.5 467.28 696.5 431.28 751.5 486.28 699.5 538.28 699.5 493.28 560.5 493.28 560.5 467.28"/><text class="cls-3" transform="translate(610 422.18)">Nd</text><circle cx="124.5" cy="454.28" r="19.5"/><circle cx="362.5" cy="435.28" r="19.5"/><circle cx="244.5" cy="487.28" r="19.5"/><circle cx="362.5" cy="537.28" r="19.5"/><circle cx="124.5" cy="556.28" r="19.5"/><line class="cls-4" x1="362.5" y1="394.28" x2="362.5" y2="416.28"/><line class="cls-4" x1="362.5" y1="455.78" x2="362.5" y2="518.28"/><line class="cls-4" x1="362.5" y1="557.28" x2="362.5" y2="586.28"/><text class="cls-5" transform="translate(0 264.72)"><tspan class="cls-6">P</tspan><tspan x="15.18" y="0">a</tspan><tspan class="cls-7" x="29.64" y="0">r</tspan><tspan x="39.3" y="0">a fu</tspan><tspan class="cls-8" x="85.41" y="0">r</tspan><tspan x="94.92" y="0">os alinhados em </tspan><tspan class="cls-9" x="303.99" y="0">g</tspan><tspan class="cls-7" x="320.58" y="0">r</tspan><tspan x="330.24" y="0">ad</tspan><tspan class="cls-10" x="361.62" y="0">e</tspan><tspan x="376.29" y="0">, </tspan><tspan class="cls-9" x="388.86" y="0">c</tspan><tspan x="402.12" y="0">onside</tspan><tspan class="cls-7" x="486.08" y="0">r</tspan><tspan x="495.75" y="0">ar q</tspan><tspan class="cls-11" x="543.26" y="0">t</tspan><tspan x="553.01" y="0">d de fu</tspan><tspan class="cls-8" x="639.89" y="0">r</tspan><tspan x="649.4" y="0">os na pior seçã</tspan><tspan class="cls-12" x="833.12" y="0">o</tspan><tspan x="848.87" y="0">. </tspan><tspan x="0" y="36">Nes</tspan><tspan class="cls-11" x="46.65" y="36">t</tspan><tspan x="56.4" y="36">e cas</tspan><tspan class="cls-12" x="117.57" y="36">o</tspan><tspan x="133.32" y="36">, </tspan><tspan class="cls-9" x="145.89" y="36">t</tspan><tspan x="155.64" y="36">emos t</tspan><tspan class="cls-8" x="240.33" y="36">r</tspan><tspan x="249.84" y="36">ês se</tspan><tspan class="cls-11" x="310.02" y="36">ç</tspan><tspan x="323.28" y="36">ões p</tspan><tspan class="cls-8" x="390.08" y="36">r</tspan><tspan class="cls-13" x="399.6" y="36">oblem</tspan><tspan class="cls-14" x="480.26" y="36">á</tspan><tspan x="494.6" y="36">tica</tspan><tspan class="cls-15" x="539.45" y="36">s</tspan><tspan x="551" y="36">, e cada uma delas </tspan><tspan class="cls-11" x="784.7" y="36">t</tspan><tspan x="794.45" y="36">em </tspan><tspan x="0" y="72">dois fu</tspan><tspan class="cls-8" x="83.94" y="72">r</tspan><tspan x="93.45" y="72">o</tspan><tspan class="cls-16" x="109.92" y="72">s</tspan><tspan x="121.47" y="72">. </tspan><tspan class="cls-11" x="134.04" y="72">A</tspan><tspan x="152.22" y="72">ssim, n = 2.</tspan><tspan class="cls-17" x="289.44" y="72"> </tspan><tspan class="cls-18" x="294.72" y="72">V</tspan><tspan x="310.47" y="72">e</tspan><tspan class="cls-19" x="325.5" y="72">r</tspan><tspan x="335.43" y="72">ificar qua</tspan><tspan class="cls-20" x="450.09" y="72">n</tspan><tspan class="cls-11" x="466.62" y="72">t</tspan><tspan x="476.37" y="72">os fu</tspan><tspan class="cls-8" x="536.36" y="72">r</tspan><tspan x="545.87" y="72">os sua seção </tspan><tspan class="cls-11" x="707.45" y="72">t</tspan><tspan x="717.2" y="72">em.</tspan></text><text class="cls-5" transform="translate(0 697.72)"><tspan class="cls-6">P</tspan><tspan x="15.18" y="0">a</tspan><tspan class="cls-7" x="29.64" y="0">r</tspan><tspan x="39.3" y="0">a fu</tspan><tspan class="cls-8" x="85.41" y="0">r</tspan><tspan x="94.92" y="0">os desalinhado</tspan><tspan class="cls-16" x="283.17" y="0">s</tspan><tspan x="294.72" y="0">, </tspan><tspan class="cls-8" x="307.29" y="0">v</tspan><tspan x="321.42" y="0">e</tspan><tspan class="cls-21" x="336.45" y="0">r</tspan><tspan x="346.38" y="0">ificar se s&lt;=4*dfu</tspan><tspan class="cls-8" x="564.12" y="0">r</tspan><tspan class="cls-12" x="573.63" y="0">o</tspan><tspan x="589.38" y="0">. </tspan><tspan class="cls-22" x="601.94" y="0">C</tspan><tspan x="619.13" y="0">aso a distância seja p</tspan><tspan x="894.38" y="0">-</tspan><tspan x="0" y="36">quena, pelo c</tspan><tspan class="cls-19" x="167.58" y="36">r</tspan><tspan x="177.51" y="36">i</tspan><tspan class="cls-9" x="184.53" y="36">t</tspan><tspan x="194.28" y="36">é</tspan><tspan class="cls-19" x="209.31" y="36">r</tspan><tspan x="219.24" y="36">io acima, </tspan><tspan class="cls-9" x="336.06" y="36">c</tspan><tspan x="349.31" y="36">onside</tspan><tspan class="cls-7" x="433.28" y="36">r</tspan><tspan x="442.94" y="36">ar o o fu</tspan><tspan class="cls-8" x="544.52" y="36">r</tspan><tspan x="554.03" y="36">o desalinhado no cálcul</tspan><tspan class="cls-12" x="848.27" y="36">o</tspan><tspan x="864.02" y="36">.</tspan><tspan class="cls-11" x="0" y="72">A</tspan><tspan x="18.18" y="72">ssim, pa</tspan><tspan class="cls-23" x="118.08" y="72">r</tspan><tspan x="127.74" y="72">a es</tspan><tspan class="cls-11" x="175.47" y="72">t</tspan><tspan x="185.22" y="72">e cas</tspan><tspan class="cls-12" x="246.39" y="72">o</tspan><tspan x="262.14" y="72">,</tspan><tspan x="0" y="108">• </tspan><tspan class="cls-24" x="14.82" y="108">S</tspan><tspan x="29.79" y="108" xml:space="preserve">e  s&lt;=4*dfu</tspan><tspan class="cls-8" x="175.23" y="108">r</tspan><tspan x="184.74" y="108">o --&gt; n=3</tspan><tspan x="0" y="144">• </tspan><tspan class="cls-24" x="14.82" y="144">S</tspan><tspan x="29.79" y="144" xml:space="preserve">e  s&gt; 4*dfu</tspan><tspan class="cls-8" x="163.71" y="144">r</tspan><tspan x="173.22" y="144" xml:space="preserve">o   --&gt; n=2</tspan><tspan class="cls-25" x="0" y="180">F</tspan><tspan x="13.26" y="180">a</tspan><tspan class="cls-26" x="27.72" y="180">z</tspan><tspan x="40.35" y="180">er de </tspan><tspan class="cls-27" x="109.86" y="180">f</tspan><tspan x="118.23" y="180">o</tspan><tspan class="cls-19" x="134.7" y="180">r</tspan><tspan x="144.63" y="180">ma análoga caso haja mais fu</tspan><tspan class="cls-8" x="509.04" y="180">r</tspan><tspan x="518.54" y="180">o</tspan><tspan class="cls-15" x="535.01" y="180">s</tspan><tspan x="546.56" y="180">.</tspan></text><line class="cls-28" x1="260" y1="475.78" x2="343" y2="439.78"/><line class="cls-28" x1="344" y1="531.78" x2="260" y2="498.78"/><line class="cls-29" x1="245" y1="607.78" x2="363" y2="607.78"/><line class="cls-29" x1="245" y1="607.78" x2="245" y2="515.78"/><line class="cls-29" x1="363" y1="607.78" x2="363" y2="594.78"/><text class="cls-30" transform="translate(289.6 642.38)">s<tspan class="cls-31" x="15.19" y="0">: distância ho</tspan><tspan class="cls-32" x="179.02" y="0">r</tspan><tspan class="cls-33" x="188.95" y="0">i</tspan><tspan class="cls-34" x="195.97" y="0">z</tspan><tspan class="cls-35" x="208.6" y="0">o</tspan><tspan class="cls-36" x="225.07" y="0">n</tspan><tspan class="cls-35" x="241.6" y="0">tal e</tspan><tspan class="cls-36" x="294.46" y="0">n</tspan><tspan class="cls-35" x="310.98" y="0">t</tspan><tspan class="cls-37" x="320.91" y="0">r</tspan><tspan class="cls-35" x="330.43" y="0">e fu</tspan><tspan class="cls-38" x="377.1" y="0">r</tspan><tspan class="cls-35" x="386.61" y="0">os desalinhados</tspan></text></svg>