<svg id="Camada_4" data-name="Camada 4" xmlns="http://www.w3.org/2000/svg" viewBox="0 0 1001 1001"><defs><style>.cls-1{fill:#fff;}.cls-1,.cls-2,.cls-3,.cls-5,.cls-6,.cls-7,.cls-8,.cls-9{stroke:#000;stroke-miterlimit:10;}.cls-2{fill:#900;}.cls-3{fill:#3cc;}.cls-4{font-size:40px;font-family:MyriadPro-Regular, Myriad Pro;}.cls-5,.cls-6,.cls-7,.cls-8,.cls-9{fill:none;}.cls-6{stroke-width:2.42px;}.cls-7{stroke-width:2px;}.cls-8{stroke-width:0.98px;}.cls-9{stroke-width:2.42px;}.cls-10{letter-spacing:-0.01em;}.cls-11{letter-spacing:0.01em;}.cls-12{letter-spacing:-0.01em;}.cls-13{letter-spacing:0em;}.cls-14{letter-spacing:0em;}.cls-15{letter-spacing:-0.01em;}</style></defs><title>secaotprogrmadeirailustratr</title><rect class="cls-1" x="0.5" y="0.5" width="1000" height="1000"/><rect class="cls-2" x="233" y="233.5" width="534" height="91"/><rect class="cls-3" x="234" y="546" width="534" height="91" transform="translate(1092.5 91.5) rotate(90)"/><text class="cls-4" transform="translate(119.12 285.08)">tf</text><text class="cls-4" transform="translate(437.12 167.08)">bf</text><line class="cls-5" x1="185" y1="234" x2="219" y2="234"/><line class="cls-5" x1="185" y1="325" x2="219" y2="325"/><line class="cls-5" x1="201.5" y1="233.5" x2="201.5" y2="324.5"/><line class="cls-6" x1="185" y1="328.92" x2="219" y2="328.92"/><line class="cls-6" x1="185" y1="860" x2="219" y2="860"/><line class="cls-6" x1="201.5" y1="326" x2="201.5" y2="857.08"/><line class="cls-7" x1="809.1" y1="234.46" x2="855.62" y2="234.46"/><line class="cls-7" x1="809.1" y1="501" x2="855.62" y2="501"/><line class="cls-7" x1="831.68" y1="233" x2="831.68" y2="499.54"/><line class="cls-8" x1="545.51" y1="893" x2="545.51" y2="926.72"/><line class="cls-8" x1="457" y1="893" x2="457" y2="926.72"/><line class="cls-8" x1="546" y1="909.36" x2="457.49" y2="909.36"/><line class="cls-9" x1="764.07" y1="181" x2="764.07" y2="215"/><line class="cls-9" x1="230.5" y1="181" x2="230.5" y2="215"/><line class="cls-9" x1="767" y1="197.5" x2="233.43" y2="197.5"/><text class="cls-4" transform="translate(123.88 617.36)"><tspan class="cls-10">h</tspan><tspan x="21.68" y="0">w</tspan></text><text class="cls-4" transform="translate(483.88 961.36)"><tspan class="cls-11">t</tspan><tspan x="13.6" y="0">w</tspan></text><text class="cls-4" transform="translate(866.92 368.96)">y</text><line class="cls-7" x1="863" y1="339" x2="890" y2="339"/><circle cx="501" cy="500" r="19"/><text class="cls-4" transform="translate(557.16 475.36)"><tspan class="cls-12">C</tspan><tspan x="22.76" y="0">e</tspan><tspan class="cls-13" x="42.8" y="0">n</tspan><tspan class="cls-14" x="64.84" y="0">t</tspan><tspan class="cls-15" x="78.08" y="0">r</tspan><tspan class="cls-14" x="90.76" y="0">óide</tspan></text></svg>