<svg id="Camada_5" data-name="Camada 5" xmlns="http://www.w3.org/2000/svg" viewBox="0 0 941.77 904.69"><defs><style>.cls-1{font-size:40px;}.cls-1,.cls-15,.cls-23,.cls-26,.cls-7{font-family:MyriadPro-Regular, Myriad Pro;}.cls-2{letter-spacing:0.01em;}.cls-3{letter-spacing:-0.01em;}.cls-4{letter-spacing:0em;}.cls-5{letter-spacing:-0.01em;}.cls-6{letter-spacing:0em;}.cls-7{font-size:33.38px;}.cls-8{letter-spacing:0em;}.cls-9{letter-spacing:0em;}.cls-10{letter-spacing:0.01em;}.cls-11{letter-spacing:0em;}.cls-12{letter-spacing:-0.01em;}.cls-13{letter-spacing:-0.01em;}.cls-14{letter-spacing:0em;}.cls-15,.cls-23,.cls-26{font-size:36.08px;}.cls-16{letter-spacing:0.01em;}.cls-17{letter-spacing:-0.01em;}.cls-18{letter-spacing:0em;}.cls-19{letter-spacing:0em;}.cls-20,.cls-21{fill:none;stroke:#000;stroke-miterlimit:10;}.cls-21{stroke-width:2.83px;}.cls-22{letter-spacing:-0.01em;}.cls-23{letter-spacing:0em;}.cls-24{letter-spacing:-0.01em;}.cls-25{letter-spacing:0em;}.cls-26{letter-spacing:-0.01em;}.cls-27{letter-spacing:0em;}.cls-28{letter-spacing:-0.01em;}.cls-29{letter-spacing:0.01em;}.cls-30{letter-spacing:0em;}.cls-31{letter-spacing:-0.01em;}</style></defs><title>secaotcontasprogrmadeirailustratr</title><text class="cls-1" transform="translate(8 275.96)">y = bf×tf×(tf/2) + <tspan class="cls-2" x="289.35" y="0">t</tspan><tspan x="302.95" y="0">w×</tspan><tspan class="cls-3" x="356.23" y="0">h</tspan><tspan class="cls-4" x="377.91" y="0">w×(tf+</tspan><tspan class="cls-5" x="491.31" y="0">h</tspan><tspan x="512.99" y="0">w/2)</tspan><tspan x="0" y="48" xml:space="preserve">                         bf×tf + </tspan><tspan class="cls-2" x="335.99" y="48">t</tspan><tspan class="cls-6" x="349.59" y="48">w×</tspan><tspan class="cls-5" x="402.87" y="48">h</tspan><tspan x="424.55" y="48">w</tspan></text><text class="cls-7" transform="translate(4 490.41)"><tspan class="cls-8">I</tspan><tspan class="cls-9" x="8.14" y="0">x = </tspan><tspan class="cls-10" x="57.65" y="0">t</tspan><tspan class="cls-11" x="69" y="0">w×</tspan><tspan class="cls-12" x="113.46" y="0">h</tspan><tspan x="131.55" y="0">w³/12 + </tspan><tspan class="cls-10" x="246.05" y="0">t</tspan><tspan x="257.4" y="0">w×</tspan><tspan class="cls-13" x="301.86" y="0">h</tspan><tspan x="319.96" y="0">w×[</tspan><tspan class="cls-14" x="373.9" y="0">y</tspan><tspan x="389.49" y="0">-(tf+</tspan><tspan class="cls-12" x="449.91" y="0">h</tspan><tspan x="468" y="0">w/2)]² + bf×tf³/12 + bf×tf×(</tspan><tspan class="cls-14" x="842.71" y="0">y</tspan><tspan x="858.29" y="0">-tf/2)²</tspan></text><text class="cls-15" transform="translate(4 552.67)"><tspan class="cls-16">I</tspan><tspan x="8.95" y="0">y = </tspan><tspan class="cls-17" x="62.73" y="0">h</tspan><tspan class="cls-18" x="82.29" y="0">w×</tspan><tspan class="cls-16" x="130.34" y="0">t</tspan><tspan x="142.6" y="0">w³/12 + tf×bf³/12</tspan></text><text class="cls-15" transform="translate(8 639.67)"><tspan xml:space="preserve">ix =   </tspan><tspan class="cls-19" x="77.24" y="0">I</tspan><tspan x="86.04" y="0">x/A</tspan></text><line class="cls-20" x1="64.84" y1="287.76" x2="607.84" y2="287.76"/><line class="cls-20" x1="4.34" y1="251.26" x2="29.34" y2="251.26"/><line class="cls-20" x1="4.84" y1="463.26" x2="29.84" y2="463.26"/><line class="cls-20" x1="4.84" y1="523.26" x2="29.84" y2="523.26"/><line class="cls-20" x1="389.84" y1="468.76" x2="405.84" y2="468.76"/><line class="cls-20" x1="864.84" y1="260.26" x2="880.84" y2="260.26"/><text class="cls-15" transform="translate(7.2 108.68)">A = bf×tf + <tspan class="cls-16" x="170.71" y="0">t</tspan><tspan x="182.97" y="0">w×</tspan><tspan class="cls-17" x="231.02" y="0">h</tspan><tspan class="cls-18" x="250.58" y="0">w</tspan></text><polyline class="cls-21" points="66.84 635.9 75.33 643.76 84.76 602.76 149.84 602.76 149.84 609.74"/><text class="cls-15" transform="translate(8 704.67)"><tspan xml:space="preserve">iy =   </tspan><tspan class="cls-16" x="77.52" y="0">I</tspan><tspan class="cls-18" x="86.47" y="0">y/A</tspan></text><text class="cls-15" transform="translate(8 836.67)"><tspan xml:space="preserve">lambdax =   L/ix</tspan></text><text class="cls-15" transform="translate(8 895.67)">lambd<tspan class="cls-22" x="96.86" y="0">a</tspan><tspan class="cls-18" x="113.96" y="0" xml:space="preserve">y =   L/iy</tspan></text><polyline class="cls-21" points="66.84 700.9 75.33 708.76 84.76 667.76 149.84 667.76 149.84 674.74"/><text class="cls-23" transform="translate(4.96 30.2)">Á<tspan class="cls-24" x="21.97" y="0">r</tspan><tspan class="cls-25" x="33.41" y="0">ea</tspan></text><text class="cls-26" transform="translate(4.96 218.2)">C<tspan class="cls-25" x="20.53" y="0">e</tspan><tspan class="cls-27" x="38.6" y="0">n</tspan><tspan class="cls-25" x="58.48" y="0">t</tspan><tspan class="cls-28" x="70.42" y="0">r</tspan><tspan class="cls-25" x="81.86" y="0">óide</tspan></text><text class="cls-15" transform="translate(4.96 437.2)"><tspan class="cls-29">M</tspan><tspan x="29.22" y="0">ome</tspan><tspan class="cls-30" x="97.19" y="0">n</tspan><tspan class="cls-31" x="117.06" y="0">t</tspan><tspan class="cls-25" x="128.79" y="0">os de iné</tspan><tspan class="cls-24" x="263.13" y="0">r</tspan><tspan class="cls-18" x="274.57" y="0">cia</tspan></text><text class="cls-15" transform="translate(0 780.4)">Esbel<tspan class="cls-31" x="79.15" y="0">t</tspan><tspan x="90.87" y="0">ez</tspan></text></svg>