<svg id="Camada_7" data-name="Camada 7" xmlns="http://www.w3.org/2000/svg" viewBox="0 0 880.84 904.69"><defs><style>.cls-1{font-size:40px;}.cls-1,.cls-14,.cls-22,.cls-25,.cls-6{font-family:MyriadPro-Regular, Myriad Pro;}.cls-2{letter-spacing:-0.01em;}.cls-3{letter-spacing:0em;}.cls-4{letter-spacing:0em;}.cls-5{letter-spacing:0em;}.cls-6{font-size:33.38px;}.cls-7{letter-spacing:0em;}.cls-8{letter-spacing:0em;}.cls-9{letter-spacing:0.01em;}.cls-10{letter-spacing:-0.01em;}.cls-11,.cls-13,.cls-14,.cls-22,.cls-25{font-size:36.08px;}.cls-12{letter-spacing:0em;}.cls-13,.cls-16{letter-spacing:-0.01em;}.cls-15{letter-spacing:0.01em;}.cls-17{letter-spacing:0em;}.cls-18{letter-spacing:0em;}.cls-19,.cls-20{fill:none;stroke:#000;stroke-miterlimit:10;}.cls-20{stroke-width:2.83px;}.cls-21{letter-spacing:-0.01em;}.cls-22{letter-spacing:0em;}.cls-23{letter-spacing:-0.01em;}.cls-24{letter-spacing:0em;}.cls-25{letter-spacing:-0.01em;}.cls-26{letter-spacing:0em;}.cls-27{letter-spacing:-0.01em;}.cls-28{letter-spacing:0.01em;}.cls-29{letter-spacing:0em;}.cls-30{letter-spacing:-0.01em;}</style></defs><title>secaoIcontasprogrmadeirailustratr</title><text class="cls-1" transform="translate(8 275.96)"><tspan class="cls-2">c</tspan><tspan x="17.68" y="0">e</tspan><tspan class="cls-3" x="37.72" y="0">n</tspan><tspan class="cls-4" x="59.76" y="0">t</tspan><tspan class="cls-5" x="73" y="0">r</tspan><tspan x="85.88" y="0">alizado</tspan></text><text class="cls-6" transform="translate(4 490.41)"><tspan class="cls-7">I</tspan><tspan class="cls-8" x="8.14" y="0">x = (</tspan><tspan class="cls-9" x="67.13" y="0">t</tspan><tspan x="78.48" y="0">w×</tspan><tspan class="cls-10" x="122.94" y="0">h</tspan><tspan x="141.04" y="0">w³/12) + 2</tspan><tspan class="cls-11" x="282.14" y="0">×</tspan><tspan class="cls-12" x="303.64" y="0">(bf</tspan><tspan class="cls-11" x="341.86" y="0">×</tspan><tspan class="cls-12" x="363.36" y="0">tf³/12 + bf</tspan><tspan class="cls-11" x="502.82" y="0">×tf*(</tspan><tspan class="cls-13" x="572.02" y="0">h</tspan><tspan class="cls-11" x="591.57" y="0">w/2+tf/2)²)</tspan></text><text class="cls-14" transform="translate(4 552.67)"><tspan class="cls-15">I</tspan><tspan x="8.95" y="0">y = (</tspan><tspan class="cls-16" x="72.98" y="0">h</tspan><tspan x="92.53" y="0">w×</tspan><tspan class="cls-15" x="140.58" y="0">t</tspan><tspan class="cls-17" x="152.85" y="0">w³/12) + 2×(tf×bf³/12)</tspan></text><text class="cls-14" transform="translate(8 639.67)"><tspan xml:space="preserve">ix =   </tspan><tspan class="cls-18" x="77.24" y="0">I</tspan><tspan x="86.04" y="0">x/A</tspan></text><line class="cls-19" x1="4.84" y1="463.26" x2="29.84" y2="463.26"/><line class="cls-19" x1="4.84" y1="523.26" x2="29.84" y2="523.26"/><line class="cls-19" x1="864.84" y1="260.26" x2="880.84" y2="260.26"/><text class="cls-14" transform="translate(7.2 108.68)">A = 2*bf×tf + <tspan class="cls-15" x="204.18" y="0">t</tspan><tspan x="216.45" y="0">w×</tspan><tspan class="cls-16" x="264.5" y="0">h</tspan><tspan class="cls-17" x="284.06" y="0">w</tspan></text><polyline class="cls-20" points="66.84 635.9 75.33 643.76 84.76 602.76 149.84 602.76 149.84 609.74"/><text class="cls-14" transform="translate(8 704.67)"><tspan xml:space="preserve">iy =   </tspan><tspan class="cls-15" x="77.52" y="0">I</tspan><tspan class="cls-17" x="86.47" y="0">y/A</tspan></text><text class="cls-14" transform="translate(8 836.67)"><tspan xml:space="preserve">lambdax =   L/ix</tspan></text><text class="cls-14" transform="translate(8 895.67)">lambd<tspan class="cls-21" x="96.86" y="0">a</tspan><tspan class="cls-17" x="113.96" y="0" xml:space="preserve">y =   L/iy</tspan></text><polyline class="cls-20" points="66.84 700.9 75.33 708.76 84.76 667.76 149.84 667.76 149.84 674.74"/><text class="cls-22" transform="translate(4.96 30.2)">Á<tspan class="cls-23" x="21.97" y="0">r</tspan><tspan class="cls-24" x="33.41" y="0">ea</tspan></text><text class="cls-25" transform="translate(4.96 218.2)">C<tspan class="cls-24" x="20.53" y="0">e</tspan><tspan class="cls-26" x="38.6" y="0">n</tspan><tspan class="cls-24" x="58.48" y="0">t</tspan><tspan class="cls-27" x="70.42" y="0">r</tspan><tspan class="cls-24" x="81.86" y="0">óide</tspan></text><text class="cls-14" transform="translate(4.96 437.2)"><tspan class="cls-28">M</tspan><tspan x="29.22" y="0">ome</tspan><tspan class="cls-29" x="97.19" y="0">n</tspan><tspan class="cls-30" x="117.06" y="0">t</tspan><tspan class="cls-24" x="128.79" y="0">os de iné</tspan><tspan class="cls-23" x="263.13" y="0">r</tspan><tspan class="cls-17" x="274.57" y="0">cia</tspan></text><text class="cls-14" transform="translate(0 780.4)">Esbel<tspan class="cls-30" x="79.15" y="0">t</tspan><tspan x="90.87" y="0">ez</tspan></text></svg>