<svg id="Camada_6" data-name="Camada 6" xmlns="http://www.w3.org/2000/svg" viewBox="0 0 1001 1001"><defs><style>.cls-1{fill:#fff;}.cls-1,.cls-2,.cls-3,.cls-5,.cls-6,.cls-7,.cls-8{stroke:#000;stroke-miterlimit:10;}.cls-2{fill:#900;}.cls-3{fill:#3cc;stroke-width:0.92px;}.cls-4{font-size:40px;font-family:MyriadPro-Regular, Myriad Pro;}.cls-5,.cls-6,.cls-7,.cls-8{fill:none;}.cls-6{stroke-width:2.23px;}.cls-7{stroke-width:0.98px;}.cls-8{stroke-width:2.42px;}.cls-9{letter-spacing:-0.01em;}.cls-10{letter-spacing:0.01em;}.cls-11{letter-spacing:-0.01em;}.cls-12{letter-spacing:0em;}.cls-13{letter-spacing:0em;}.cls-14{letter-spacing:-0.01em;}</style></defs><title>secaoiprogrmadeirailustratr</title><rect class="cls-1" x="0.5" y="0.5" width="1000" height="1000"/><rect class="cls-2" x="233" y="233.5" width="534" height="91"/><rect class="cls-2" x="233.5" y="779.5" width="534" height="91"/><rect class="cls-3" x="273.5" y="504.5" width="453" height="91" transform="translate(1051 52) rotate(90)"/><text class="cls-4" transform="translate(119.12 285.08)">tf</text><text class="cls-4" transform="translate(437.12 167.08)">bf</text><line class="cls-5" x1="185" y1="234" x2="219" y2="234"/><line class="cls-5" x1="185" y1="325" x2="219" y2="325"/><line class="cls-5" x1="201.5" y1="233.5" x2="201.5" y2="324.5"/><line class="cls-6" x1="185" y1="328.48" x2="219" y2="328.48"/><line class="cls-6" x1="185" y1="780" x2="219" y2="780"/><line class="cls-6" x1="201.5" y1="326" x2="201.5" y2="777.52"/><line class="cls-7" x1="545.51" y1="893" x2="545.51" y2="926.72"/><line class="cls-7" x1="457" y1="893" x2="457" y2="926.72"/><line class="cls-7" x1="546" y1="909.36" x2="457.49" y2="909.36"/><line class="cls-8" x1="764.07" y1="181" x2="764.07" y2="215"/><line class="cls-8" x1="230.5" y1="181" x2="230.5" y2="215"/><line class="cls-8" x1="767" y1="197.5" x2="233.43" y2="197.5"/><text class="cls-4" transform="translate(123.88 617.36)"><tspan class="cls-9">h</tspan><tspan x="21.68" y="0">w</tspan></text><text class="cls-4" transform="translate(483.88 961.36)"><tspan class="cls-10">t</tspan><tspan x="13.6" y="0">w</tspan></text><circle cx="501" cy="552" r="19"/><text class="cls-4" transform="translate(557.16 541.36)"><tspan class="cls-11">C</tspan><tspan x="22.76" y="0">e</tspan><tspan class="cls-12" x="42.8" y="0">n</tspan><tspan class="cls-13" x="64.84" y="0">t</tspan><tspan class="cls-14" x="78.08" y="0">r</tspan><tspan class="cls-13" x="90.76" y="0">óide</tspan></text></svg>